ISO-10303-21;
HEADER;
/* Generated by software containing ST-Developer
 * from STEP Tools, Inc. (www.steptools.com) 
 */

FILE_DESCRIPTION(
/* description */ (''),
/* implementation_level */ '2;1');

FILE_NAME(
/* name */ 'ref_excentrica_dibujada.step',
/* time_stamp */ '2026-09-29T16:34:03-03:00',
/* author */ (''),
/* organization */ (''),
/* preprocessor_version */ 'ST-DEVELOPER v20.2',
/* originating_system */ 'Autodesk Translation Framework v15.15.0.0',
/* authorisation */ '');

FILE_SCHEMA (('AUTOMOTIVE_DESIGN { 1 0 10303 214 3 1 1 }'));
ENDSEC;

DATA;
#10=MECHANICAL_DESIGN_GEOMETRIC_PRESENTATION_REPRESENTATION('',(#13),#454);
#11=SHAPE_REPRESENTATION_RELATIONSHIP('SRR','None',#461,#12);
#12=ADVANCED_BREP_SHAPE_REPRESENTATION('',(#14),#453);
#13=STYLED_ITEM('',(#471),#14);
#14=MANIFOLD_SOLID_BREP('Excentrica O15',#240);
#15=PLANE('',#256);
#16=PLANE('',#257);
#17=PLANE('',#258);
#18=PLANE('',#262);
#19=PLANE('',#263);
#20=PLANE('',#265);
#21=PLANE('',#271);
#22=PLANE('',#273);
#23=PLANE('',#277);
#24=FACE_OUTER_BOUND('',#37,.T.);
#25=FACE_OUTER_BOUND('',#38,.T.);
#26=FACE_OUTER_BOUND('',#39,.T.);
#27=FACE_OUTER_BOUND('',#40,.T.);
#28=FACE_OUTER_BOUND('',#41,.T.);
#29=FACE_OUTER_BOUND('',#42,.T.);
#30=FACE_OUTER_BOUND('',#43,.T.);
#31=FACE_OUTER_BOUND('',#44,.T.);
#32=FACE_OUTER_BOUND('',#45,.T.);
#33=FACE_OUTER_BOUND('',#46,.T.);
#34=FACE_OUTER_BOUND('',#47,.T.);
#35=FACE_OUTER_BOUND('',#48,.T.);
#36=FACE_OUTER_BOUND('',#49,.T.);
#37=EDGE_LOOP('',(#157,#158,#159,#160,#161,#162));
#38=EDGE_LOOP('',(#163));
#39=EDGE_LOOP('',(#164,#165,#166,#167,#168,#169,#170,#171));
#40=EDGE_LOOP('',(#172,#173,#174,#175,#176));
#41=EDGE_LOOP('',(#177,#178,#179,#180,#181,#182,#183,#184));
#42=EDGE_LOOP('',(#185,#186));
#43=EDGE_LOOP('',(#187,#188));
#44=EDGE_LOOP('',(#189,#190,#191,#192));
#45=EDGE_LOOP('',(#193,#194,#195,#196));
#46=EDGE_LOOP('',(#197,#198,#199,#200));
#47=EDGE_LOOP('',(#201,#202,#203,#204));
#48=EDGE_LOOP('',(#205,#206,#207,#208,#209,#210,#211,#212,#213,#214,#215,
#216,#217,#218,#219,#220,#221));
#49=EDGE_LOOP('',(#222));
#50=CIRCLE('',#255,0.33);
#51=CIRCLE('',#259,0.73);
#52=CIRCLE('',#260,0.73);
#53=CIRCLE('',#261,0.73);
#54=CIRCLE('',#264,0.77);
#55=CIRCLE('',#266,0.77);
#56=CIRCLE('',#268,0.77);
#57=CIRCLE('',#270,0.77);
#58=CIRCLE('',#272,0.73);
#59=CIRCLE('',#274,0.73);
#60=CIRCLE('',#276,0.73);
#61=LINE('',#391,#80);
#62=LINE('',#397,#81);
#63=LINE('',#399,#82);
#64=LINE('',#401,#83);
#65=LINE('',#403,#84);
#66=LINE('',#405,#85);
#67=LINE('',#407,#86);
#68=LINE('',#409,#87);
#69=LINE('',#410,#88);
#70=LINE('',#416,#89);
#71=LINE('',#421,#90);
#72=LINE('',#423,#91);
#73=LINE('',#425,#92);
#74=LINE('',#427,#93);
#75=LINE('',#429,#94);
#76=LINE('',#431,#95);
#77=LINE('',#432,#96);
#78=LINE('',#448,#97);
#79=LINE('',#449,#98);
#80=VECTOR('',#282,0.33);
#81=VECTOR('',#289,1.);
#82=VECTOR('',#290,1.);
#83=VECTOR('',#291,1.);
#84=VECTOR('',#292,1.);
#85=VECTOR('',#293,1.);
#86=VECTOR('',#294,1.);
#87=VECTOR('',#295,1.);
#88=VECTOR('',#296,1.);
#89=VECTOR('',#301,1.);
#90=VECTOR('',#308,1.);
#91=VECTOR('',#309,1.);
#92=VECTOR('',#310,1.);
#93=VECTOR('',#311,1.);
#94=VECTOR('',#312,1.);
#95=VECTOR('',#313,1.);
#96=VECTOR('',#314,1.);
#97=VECTOR('',#343,0.73);
#98=VECTOR('',#344,0.73);
#99=B_SPLINE_CURVE_WITH_KNOTS('',3,(#351,#352,#353,#354,#355,#356,#357,
#358,#359,#360),.UNSPECIFIED.,.F.,.F.,(4,2,2,2,4),(0.,0.126438173188853,
0.252876346377707,0.379095675620563,0.505315004863419),.UNSPECIFIED.);
#100=B_SPLINE_CURVE_WITH_KNOTS('',3,(#362,#363,#364,#365,#366,#367,#368,
#369,#370,#371),.UNSPECIFIED.,.F.,.F.,(4,2,2,2,4),(1.51594501459026,1.64216434383311,
1.76838367307597,1.89482184626482,2.02126001945367),.UNSPECIFIED.);
#101=B_SPLINE_CURVE_WITH_KNOTS('',3,(#372,#373,#374,#375,#376,#377,#378,
#379,#380,#381,#382,#383,#384,#385,#386,#387,#388,#389),.UNSPECIFIED.,.F.,
 .F.,(4,2,2,2,2,2,2,2,4),(0.505315004863419,0.631534334106274,0.75775366334913,
0.884191836537984,1.01063000972684,1.13706818291569,1.26350635610454,1.3897256853474,
1.51594501459026),.UNSPECIFIED.);
#102=VERTEX_POINT('',#349);
#103=VERTEX_POINT('',#350);
#104=VERTEX_POINT('',#361);
#105=VERTEX_POINT('',#390);
#106=VERTEX_POINT('',#395);
#107=VERTEX_POINT('',#396);
#108=VERTEX_POINT('',#398);
#109=VERTEX_POINT('',#400);
#110=VERTEX_POINT('',#402);
#111=VERTEX_POINT('',#404);
#112=VERTEX_POINT('',#406);
#113=VERTEX_POINT('',#408);
#114=VERTEX_POINT('',#412);
#115=VERTEX_POINT('',#413);
#116=VERTEX_POINT('',#415);
#117=VERTEX_POINT('',#420);
#118=VERTEX_POINT('',#422);
#119=VERTEX_POINT('',#424);
#120=VERTEX_POINT('',#426);
#121=VERTEX_POINT('',#428);
#122=VERTEX_POINT('',#430);
#123=VERTEX_POINT('',#446);
#124=EDGE_CURVE('',#102,#103,#99,.T.);
#125=EDGE_CURVE('',#104,#102,#100,.T.);
#126=EDGE_CURVE('',#103,#104,#101,.T.);
#127=EDGE_CURVE('',#103,#105,#61,.T.);
#128=EDGE_CURVE('',#105,#105,#50,.T.);
#129=EDGE_CURVE('',#106,#107,#62,.T.);
#130=EDGE_CURVE('',#106,#108,#63,.T.);
#131=EDGE_CURVE('',#109,#108,#64,.T.);
#132=EDGE_CURVE('',#110,#109,#65,.T.);
#133=EDGE_CURVE('',#111,#110,#66,.T.);
#134=EDGE_CURVE('',#112,#111,#67,.T.);
#135=EDGE_CURVE('',#113,#112,#68,.T.);
#136=EDGE_CURVE('',#107,#113,#69,.T.);
#137=EDGE_CURVE('',#114,#115,#51,.T.);
#138=EDGE_CURVE('',#116,#114,#70,.T.);
#139=EDGE_CURVE('',#108,#116,#52,.T.);
#140=EDGE_CURVE('',#115,#106,#53,.T.);
#141=EDGE_CURVE('',#117,#114,#71,.T.);
#142=EDGE_CURVE('',#118,#117,#72,.T.);
#143=EDGE_CURVE('',#119,#118,#73,.T.);
#144=EDGE_CURVE('',#120,#119,#74,.T.);
#145=EDGE_CURVE('',#121,#120,#75,.T.);
#146=EDGE_CURVE('',#122,#121,#76,.T.);
#147=EDGE_CURVE('',#116,#122,#77,.T.);
#148=EDGE_CURVE('',#119,#120,#54,.T.);
#149=EDGE_CURVE('',#111,#112,#55,.T.);
#150=EDGE_CURVE('',#121,#118,#56,.T.);
#151=EDGE_CURVE('',#113,#110,#57,.T.);
#152=EDGE_CURVE('',#122,#117,#58,.T.);
#153=EDGE_CURVE('',#107,#109,#59,.T.);
#154=EDGE_CURVE('',#123,#123,#60,.T.);
#155=EDGE_CURVE('',#123,#103,#78,.T.);
#156=EDGE_CURVE('',#104,#115,#79,.T.);
#157=ORIENTED_EDGE('',*,*,#124,.F.);
#158=ORIENTED_EDGE('',*,*,#125,.F.);
#159=ORIENTED_EDGE('',*,*,#126,.F.);
#160=ORIENTED_EDGE('',*,*,#127,.T.);
#161=ORIENTED_EDGE('',*,*,#128,.T.);
#162=ORIENTED_EDGE('',*,*,#127,.F.);
#163=ORIENTED_EDGE('',*,*,#128,.F.);
#164=ORIENTED_EDGE('',*,*,#129,.F.);
#165=ORIENTED_EDGE('',*,*,#130,.T.);
#166=ORIENTED_EDGE('',*,*,#131,.F.);
#167=ORIENTED_EDGE('',*,*,#132,.F.);
#168=ORIENTED_EDGE('',*,*,#133,.F.);
#169=ORIENTED_EDGE('',*,*,#134,.F.);
#170=ORIENTED_EDGE('',*,*,#135,.F.);
#171=ORIENTED_EDGE('',*,*,#136,.F.);
#172=ORIENTED_EDGE('',*,*,#137,.F.);
#173=ORIENTED_EDGE('',*,*,#138,.F.);
#174=ORIENTED_EDGE('',*,*,#139,.F.);
#175=ORIENTED_EDGE('',*,*,#130,.F.);
#176=ORIENTED_EDGE('',*,*,#140,.F.);
#177=ORIENTED_EDGE('',*,*,#141,.F.);
#178=ORIENTED_EDGE('',*,*,#142,.F.);
#179=ORIENTED_EDGE('',*,*,#143,.F.);
#180=ORIENTED_EDGE('',*,*,#144,.F.);
#181=ORIENTED_EDGE('',*,*,#145,.F.);
#182=ORIENTED_EDGE('',*,*,#146,.F.);
#183=ORIENTED_EDGE('',*,*,#147,.F.);
#184=ORIENTED_EDGE('',*,*,#138,.T.);
#185=ORIENTED_EDGE('',*,*,#144,.T.);
#186=ORIENTED_EDGE('',*,*,#148,.T.);
#187=ORIENTED_EDGE('',*,*,#134,.T.);
#188=ORIENTED_EDGE('',*,*,#149,.T.);
#189=ORIENTED_EDGE('',*,*,#143,.T.);
#190=ORIENTED_EDGE('',*,*,#150,.F.);
#191=ORIENTED_EDGE('',*,*,#145,.T.);
#192=ORIENTED_EDGE('',*,*,#148,.F.);
#193=ORIENTED_EDGE('',*,*,#135,.T.);
#194=ORIENTED_EDGE('',*,*,#149,.F.);
#195=ORIENTED_EDGE('',*,*,#133,.T.);
#196=ORIENTED_EDGE('',*,*,#151,.F.);
#197=ORIENTED_EDGE('',*,*,#142,.T.);
#198=ORIENTED_EDGE('',*,*,#152,.F.);
#199=ORIENTED_EDGE('',*,*,#146,.T.);
#200=ORIENTED_EDGE('',*,*,#150,.T.);
#201=ORIENTED_EDGE('',*,*,#136,.T.);
#202=ORIENTED_EDGE('',*,*,#151,.T.);
#203=ORIENTED_EDGE('',*,*,#132,.T.);
#204=ORIENTED_EDGE('',*,*,#153,.F.);
#205=ORIENTED_EDGE('',*,*,#154,.F.);
#206=ORIENTED_EDGE('',*,*,#155,.T.);
#207=ORIENTED_EDGE('',*,*,#126,.T.);
#208=ORIENTED_EDGE('',*,*,#156,.T.);
#209=ORIENTED_EDGE('',*,*,#140,.T.);
#210=ORIENTED_EDGE('',*,*,#129,.T.);
#211=ORIENTED_EDGE('',*,*,#153,.T.);
#212=ORIENTED_EDGE('',*,*,#131,.T.);
#213=ORIENTED_EDGE('',*,*,#139,.T.);
#214=ORIENTED_EDGE('',*,*,#147,.T.);
#215=ORIENTED_EDGE('',*,*,#152,.T.);
#216=ORIENTED_EDGE('',*,*,#141,.T.);
#217=ORIENTED_EDGE('',*,*,#137,.T.);
#218=ORIENTED_EDGE('',*,*,#156,.F.);
#219=ORIENTED_EDGE('',*,*,#125,.T.);
#220=ORIENTED_EDGE('',*,*,#124,.T.);
#221=ORIENTED_EDGE('',*,*,#155,.F.);
#222=ORIENTED_EDGE('',*,*,#154,.T.);
#223=CYLINDRICAL_SURFACE('',#254,0.33);
#224=CYLINDRICAL_SURFACE('',#267,0.77);
#225=CYLINDRICAL_SURFACE('',#269,0.77);
#226=CYLINDRICAL_SURFACE('',#275,0.73);
#227=ADVANCED_FACE('',(#24),#223,.F.);
#228=ADVANCED_FACE('',(#25),#15,.F.);
#229=ADVANCED_FACE('',(#26),#16,.T.);
#230=ADVANCED_FACE('',(#27),#17,.F.);
#231=ADVANCED_FACE('',(#28),#18,.T.);
#232=ADVANCED_FACE('',(#29),#19,.T.);
#233=ADVANCED_FACE('',(#30),#20,.T.);
#234=ADVANCED_FACE('',(#31),#224,.T.);
#235=ADVANCED_FACE('',(#32),#225,.T.);
#236=ADVANCED_FACE('',(#33),#21,.T.);
#237=ADVANCED_FACE('',(#34),#22,.T.);
#238=ADVANCED_FACE('',(#35),#226,.T.);
#239=ADVANCED_FACE('',(#36),#23,.T.);
#240=CLOSED_SHELL('',(#227,#228,#229,#230,#231,#232,#233,#234,#235,#236,
#237,#238,#239));
#241=DERIVED_UNIT_ELEMENT(#243,1.);
#242=DERIVED_UNIT_ELEMENT(#456,-3.);
#243=(
MASS_UNIT()
NAMED_UNIT(*)
SI_UNIT(.KILO.,.GRAM.)
);
#244=DERIVED_UNIT((#241,#242));
#245=MEASURE_REPRESENTATION_ITEM('density measure',
POSITIVE_RATIO_MEASURE(7850.),#244);
#246=PROPERTY_DEFINITION_REPRESENTATION(#251,#248);
#247=PROPERTY_DEFINITION_REPRESENTATION(#252,#249);
#248=REPRESENTATION('material name',(#250),#453);
#249=REPRESENTATION('density',(#245),#453);
#250=DESCRIPTIVE_REPRESENTATION_ITEM('Steel','Steel');
#251=PROPERTY_DEFINITION('material property','material name',#463);
#252=PROPERTY_DEFINITION('material property','density of part',#463);
#253=AXIS2_PLACEMENT_3D('',#347,#278,#279);
#254=AXIS2_PLACEMENT_3D('',#348,#280,#281);
#255=AXIS2_PLACEMENT_3D('',#392,#283,#284);
#256=AXIS2_PLACEMENT_3D('',#393,#285,#286);
#257=AXIS2_PLACEMENT_3D('',#394,#287,#288);
#258=AXIS2_PLACEMENT_3D('',#411,#297,#298);
#259=AXIS2_PLACEMENT_3D('',#414,#299,#300);
#260=AXIS2_PLACEMENT_3D('',#417,#302,#303);
#261=AXIS2_PLACEMENT_3D('',#418,#304,#305);
#262=AXIS2_PLACEMENT_3D('',#419,#306,#307);
#263=AXIS2_PLACEMENT_3D('',#433,#315,#316);
#264=AXIS2_PLACEMENT_3D('',#434,#317,#318);
#265=AXIS2_PLACEMENT_3D('',#435,#319,#320);
#266=AXIS2_PLACEMENT_3D('',#436,#321,#322);
#267=AXIS2_PLACEMENT_3D('',#437,#323,#324);
#268=AXIS2_PLACEMENT_3D('',#438,#325,#326);
#269=AXIS2_PLACEMENT_3D('',#439,#327,#328);
#270=AXIS2_PLACEMENT_3D('',#440,#329,#330);
#271=AXIS2_PLACEMENT_3D('',#441,#331,#332);
#272=AXIS2_PLACEMENT_3D('',#442,#333,#334);
#273=AXIS2_PLACEMENT_3D('',#443,#335,#336);
#274=AXIS2_PLACEMENT_3D('',#444,#337,#338);
#275=AXIS2_PLACEMENT_3D('',#445,#339,#340);
#276=AXIS2_PLACEMENT_3D('',#447,#341,#342);
#277=AXIS2_PLACEMENT_3D('',#450,#345,#346);
#278=DIRECTION('axis',(0.,0.,1.));
#279=DIRECTION('refdir',(1.,0.,0.));
#280=DIRECTION('center_axis',(1.,0.,0.));
#281=DIRECTION('ref_axis',(0.,0.,-1.));
#282=DIRECTION('',(1.,0.,0.));
#283=DIRECTION('center_axis',(1.,0.,0.));
#284=DIRECTION('ref_axis',(0.,0.,-1.));
#285=DIRECTION('center_axis',(1.,0.,0.));
#286=DIRECTION('ref_axis',(0.,0.,-1.));
#287=DIRECTION('center_axis',(0.,1.,0.));
#288=DIRECTION('ref_axis',(0.,0.,1.));
#289=DIRECTION('',(0.,0.,-1.));
#290=DIRECTION('',(1.,0.,0.));
#291=DIRECTION('',(0.,0.,1.));
#292=DIRECTION('',(-1.,0.,0.));
#293=DIRECTION('',(0.,0.,1.));
#294=DIRECTION('',(1.,0.,0.));
#295=DIRECTION('',(0.,0.,-1.));
#296=DIRECTION('',(-1.,0.,0.));
#297=DIRECTION('center_axis',(0.,0.,1.));
#298=DIRECTION('ref_axis',(1.,0.,0.));
#299=DIRECTION('center_axis',(0.,0.,1.));
#300=DIRECTION('ref_axis',(1.,0.,0.));
#301=DIRECTION('',(-1.,0.,0.));
#302=DIRECTION('center_axis',(0.,0.,1.));
#303=DIRECTION('ref_axis',(1.,0.,0.));
#304=DIRECTION('center_axis',(0.,0.,1.));
#305=DIRECTION('ref_axis',(1.,0.,0.));
#306=DIRECTION('center_axis',(0.,-1.,0.));
#307=DIRECTION('ref_axis',(0.,0.,-1.));
#308=DIRECTION('',(0.,0.,1.));
#309=DIRECTION('',(1.,0.,0.));
#310=DIRECTION('',(0.,0.,1.));
#311=DIRECTION('',(-1.,0.,0.));
#312=DIRECTION('',(0.,0.,-1.));
#313=DIRECTION('',(1.,0.,0.));
#314=DIRECTION('',(0.,0.,-1.));
#315=DIRECTION('center_axis',(0.,0.,-1.));
#316=DIRECTION('ref_axis',(-1.,0.,0.));
#317=DIRECTION('center_axis',(0.,0.,-1.));
#318=DIRECTION('ref_axis',(1.,0.,0.));
#319=DIRECTION('center_axis',(0.,0.,-1.));
#320=DIRECTION('ref_axis',(-1.,0.,0.));
#321=DIRECTION('center_axis',(0.,0.,-1.));
#322=DIRECTION('ref_axis',(1.,0.,0.));
#323=DIRECTION('center_axis',(0.,0.,1.));
#324=DIRECTION('ref_axis',(1.,0.,0.));
#325=DIRECTION('center_axis',(0.,0.,1.));
#326=DIRECTION('ref_axis',(1.,0.,0.));
#327=DIRECTION('center_axis',(0.,0.,1.));
#328=DIRECTION('ref_axis',(1.,0.,0.));
#329=DIRECTION('center_axis',(0.,0.,1.));
#330=DIRECTION('ref_axis',(1.,0.,0.));
#331=DIRECTION('center_axis',(0.,0.,1.));
#332=DIRECTION('ref_axis',(1.,0.,0.));
#333=DIRECTION('center_axis',(0.,0.,1.));
#334=DIRECTION('ref_axis',(1.,0.,0.));
#335=DIRECTION('center_axis',(0.,0.,1.));
#336=DIRECTION('ref_axis',(1.,0.,0.));
#337=DIRECTION('center_axis',(0.,0.,1.));
#338=DIRECTION('ref_axis',(1.,0.,0.));
#339=DIRECTION('center_axis',(0.,0.,1.));
#340=DIRECTION('ref_axis',(1.,0.,0.));
#341=DIRECTION('center_axis',(0.,0.,1.));
#342=DIRECTION('ref_axis',(1.,0.,0.));
#343=DIRECTION('',(0.,0.,-1.));
#344=DIRECTION('',(0.,0.,-1.));
#345=DIRECTION('center_axis',(0.,0.,1.));
#346=DIRECTION('ref_axis',(1.,0.,0.));
#347=CARTESIAN_POINT('',(0.,0.,0.));
#348=CARTESIAN_POINT('Origin',(-0.705,0.,0.65));
#349=CARTESIAN_POINT('',(-0.651152823843988,0.33,0.65));
#350=CARTESIAN_POINT('',(-0.73,-4.04133443718627E-17,0.98));
#351=CARTESIAN_POINT('Ctrl Pts',(-0.651152823843988,0.33,0.65));
#352=CARTESIAN_POINT('Ctrl Pts',(-0.651152823843988,0.33,0.692146057729618));
#353=CARTESIAN_POINT('Ctrl Pts',(-0.655679463072462,0.32145162891996,0.736593070092652));
#354=CARTESIAN_POINT('Ctrl Pts',(-0.671214359632723,0.287607303587795,0.81766509935858));
#355=CARTESIAN_POINT('Ctrl Pts',(-0.681921561115814,0.262333654638905,0.854356820944216));
#356=CARTESIAN_POINT('Ctrl Pts',(-0.701463117346596,0.204406995186465,0.912283480396656));
#357=CARTESIAN_POINT('Ctrl Pts',(-0.71167076679315,0.167697262870782,0.937594600119899));
#358=CARTESIAN_POINT('Ctrl Pts',(-0.726021031930829,0.086551221651369,0.971468375374584));
#359=CARTESIAN_POINT('Ctrl Pts',(-0.73,0.0420731097476187,0.98));
#360=CARTESIAN_POINT('Ctrl Pts',(-0.73,2.77555756156289E-17,0.98));
#361=CARTESIAN_POINT('',(-0.73,-7.93940776884145E-17,0.32));
#362=CARTESIAN_POINT('Ctrl Pts',(-0.73,-8.32667268468867E-17,0.32));
#363=CARTESIAN_POINT('Ctrl Pts',(-0.73,0.0420731097476186,0.32));
#364=CARTESIAN_POINT('Ctrl Pts',(-0.726021031930829,0.0865512216513688,
0.328531624625416));
#365=CARTESIAN_POINT('Ctrl Pts',(-0.71167076679315,0.167697262870781,0.362405399880101));
#366=CARTESIAN_POINT('Ctrl Pts',(-0.701463117346596,0.204406995186465,0.387716519603344));
#367=CARTESIAN_POINT('Ctrl Pts',(-0.681921561115814,0.262333654638905,0.445643179055784));
#368=CARTESIAN_POINT('Ctrl Pts',(-0.671214359632723,0.287607303587795,0.48233490064142));
#369=CARTESIAN_POINT('Ctrl Pts',(-0.655679463072462,0.32145162891996,0.563406929907348));
#370=CARTESIAN_POINT('Ctrl Pts',(-0.651152823843988,0.33,0.607853942270382));
#371=CARTESIAN_POINT('Ctrl Pts',(-0.651152823843988,0.33,0.65));
#372=CARTESIAN_POINT('Ctrl Pts',(-0.73,5.55111512312578E-17,0.98));
#373=CARTESIAN_POINT('Ctrl Pts',(-0.73,-0.0420731097476186,0.98));
#374=CARTESIAN_POINT('Ctrl Pts',(-0.726021031930829,-0.0865512216513689,
0.971468375374584));
#375=CARTESIAN_POINT('Ctrl Pts',(-0.71167076679315,-0.167697262870781,0.937594600119899));
#376=CARTESIAN_POINT('Ctrl Pts',(-0.701463117346596,-0.204406995186465,
0.912283480396656));
#377=CARTESIAN_POINT('Ctrl Pts',(-0.681921561115814,-0.262333654638905,
0.854356820944216));
#378=CARTESIAN_POINT('Ctrl Pts',(-0.671214359632723,-0.287607303587795,
0.81766509935858));
#379=CARTESIAN_POINT('Ctrl Pts',(-0.655679463072462,-0.32145162891996,0.736593070092652));
#380=CARTESIAN_POINT('Ctrl Pts',(-0.651152823843988,-0.33,0.692146057729618));
#381=CARTESIAN_POINT('Ctrl Pts',(-0.651152823843988,-0.33,0.607853942270382));
#382=CARTESIAN_POINT('Ctrl Pts',(-0.655679463072462,-0.32145162891996,0.563406929907348));
#383=CARTESIAN_POINT('Ctrl Pts',(-0.671214359632723,-0.287607303587795,
0.48233490064142));
#384=CARTESIAN_POINT('Ctrl Pts',(-0.681921561115814,-0.262333654638905,
0.445643179055784));
#385=CARTESIAN_POINT('Ctrl Pts',(-0.701463117346596,-0.204406995186465,
0.387716519603344));
#386=CARTESIAN_POINT('Ctrl Pts',(-0.71167076679315,-0.167697262870782,0.362405399880101));
#387=CARTESIAN_POINT('Ctrl Pts',(-0.726021031930828,-0.086551221651369,
0.328531624625417));
#388=CARTESIAN_POINT('Ctrl Pts',(-0.73,-0.0420731097476187,0.32));
#389=CARTESIAN_POINT('Ctrl Pts',(-0.73,-8.32667268468867E-17,0.32));
#390=CARTESIAN_POINT('',(0.05,-4.04133443718627E-17,0.98));
#391=CARTESIAN_POINT('',(-0.705,-4.04133443718627E-17,0.98));
#392=CARTESIAN_POINT('Origin',(0.05,0.,0.65));
#393=CARTESIAN_POINT('Origin',(0.05,0.,0.65));
#394=CARTESIAN_POINT('Origin',(0.,-0.14,0.03));
#395=CARTESIAN_POINT('',(-0.716449579523919,-0.14,0.16));
#396=CARTESIAN_POINT('',(-0.716449579523919,-0.14,0.0599999999999999));
#397=CARTESIAN_POINT('',(-0.716449579523919,-0.14,0.65));
#398=CARTESIAN_POINT('',(0.716449579523919,-0.14,0.16));
#399=CARTESIAN_POINT('',(0.,-0.14,0.16));
#400=CARTESIAN_POINT('',(0.716449579523919,-0.14,0.0599999999999999));
#401=CARTESIAN_POINT('',(0.716449579523919,-0.14,0.65));
#402=CARTESIAN_POINT('',(0.757165767847438,-0.14,0.06));
#403=CARTESIAN_POINT('',(0.,-0.14,0.06));
#404=CARTESIAN_POINT('',(0.757165767847438,-0.14,-0.08));
#405=CARTESIAN_POINT('',(0.757165767847438,-0.14,-0.01));
#406=CARTESIAN_POINT('',(-0.757165767847438,-0.14,-0.08));
#407=CARTESIAN_POINT('',(0.,-0.14,-0.08));
#408=CARTESIAN_POINT('',(-0.757165767847438,-0.14,0.06));
#409=CARTESIAN_POINT('',(-0.757165767847438,-0.14,-0.01));
#410=CARTESIAN_POINT('',(0.,-0.14,0.06));
#411=CARTESIAN_POINT('Origin',(0.,0.,0.16));
#412=CARTESIAN_POINT('',(-0.716449579523919,0.14,0.16));
#413=CARTESIAN_POINT('',(-0.73,-8.93992163377568E-17,0.16));
#414=CARTESIAN_POINT('Origin',(0.,0.,0.16));
#415=CARTESIAN_POINT('',(0.716449579523919,0.14,0.16));
#416=CARTESIAN_POINT('',(0.,0.14,0.16));
#417=CARTESIAN_POINT('Origin',(0.,0.,0.16));
#418=CARTESIAN_POINT('Origin',(0.,0.,0.16));
#419=CARTESIAN_POINT('Origin',(0.,0.14,0.03));
#420=CARTESIAN_POINT('',(-0.716449579523919,0.14,0.0599999999999999));
#421=CARTESIAN_POINT('',(-0.716449579523919,0.14,0.65));
#422=CARTESIAN_POINT('',(-0.757165767847438,0.14,0.06));
#423=CARTESIAN_POINT('',(0.,0.14,0.06));
#424=CARTESIAN_POINT('',(-0.757165767847438,0.14,-0.08));
#425=CARTESIAN_POINT('',(-0.757165767847438,0.14,-0.01));
#426=CARTESIAN_POINT('',(0.757165767847438,0.14,-0.08));
#427=CARTESIAN_POINT('',(0.,0.14,-0.08));
#428=CARTESIAN_POINT('',(0.757165767847438,0.14,0.06));
#429=CARTESIAN_POINT('',(0.757165767847438,0.14,-0.01));
#430=CARTESIAN_POINT('',(0.716449579523919,0.14,0.0599999999999999));
#431=CARTESIAN_POINT('',(0.,0.14,0.06));
#432=CARTESIAN_POINT('',(0.716449579523919,0.14,0.65));
#433=CARTESIAN_POINT('Origin',(0.,0.,-0.08));
#434=CARTESIAN_POINT('Origin',(0.,0.,-0.08));
#435=CARTESIAN_POINT('Origin',(0.,0.,-0.08));
#436=CARTESIAN_POINT('Origin',(0.,0.,-0.08));
#437=CARTESIAN_POINT('Origin',(0.,0.,-0.01));
#438=CARTESIAN_POINT('Origin',(0.,0.,0.06));
#439=CARTESIAN_POINT('Origin',(0.,0.,-0.01));
#440=CARTESIAN_POINT('Origin',(0.,0.,0.06));
#441=CARTESIAN_POINT('Origin',(0.,0.,0.06));
#442=CARTESIAN_POINT('Origin',(0.,0.,0.0599999999999999));
#443=CARTESIAN_POINT('Origin',(0.,0.,0.06));
#444=CARTESIAN_POINT('Origin',(0.,0.,0.0599999999999999));
#445=CARTESIAN_POINT('Origin',(0.,0.,0.65));
#446=CARTESIAN_POINT('',(-0.73,-8.93992163377568E-17,1.3));
#447=CARTESIAN_POINT('Origin',(0.,0.,1.3));
#448=CARTESIAN_POINT('',(-0.73,-8.93992163377568E-17,0.65));
#449=CARTESIAN_POINT('',(-0.73,-8.93992163377568E-17,0.65));
#450=CARTESIAN_POINT('Origin',(0.,0.,1.3));
#451=UNCERTAINTY_MEASURE_WITH_UNIT(LENGTH_MEASURE(0.001),#455,
'DISTANCE_ACCURACY_VALUE',
'Maximum model space distance between geometric entities at asserted c
onnectivities');
#452=UNCERTAINTY_MEASURE_WITH_UNIT(LENGTH_MEASURE(0.001),#455,
'DISTANCE_ACCURACY_VALUE',
'Maximum model space distance between geometric entities at asserted c
onnectivities');
#453=(
GEOMETRIC_REPRESENTATION_CONTEXT(3)
GLOBAL_UNCERTAINTY_ASSIGNED_CONTEXT((#451))
GLOBAL_UNIT_ASSIGNED_CONTEXT((#455,#457,#458))
REPRESENTATION_CONTEXT('','3D')
);
#454=(
GEOMETRIC_REPRESENTATION_CONTEXT(3)
GLOBAL_UNCERTAINTY_ASSIGNED_CONTEXT((#452))
GLOBAL_UNIT_ASSIGNED_CONTEXT((#455,#457,#458))
REPRESENTATION_CONTEXT('','3D')
);
#455=(
LENGTH_UNIT()
NAMED_UNIT(*)
SI_UNIT(.CENTI.,.METRE.)
);
#456=(
LENGTH_UNIT()
NAMED_UNIT(*)
SI_UNIT($,.METRE.)
);
#457=(
NAMED_UNIT(*)
PLANE_ANGLE_UNIT()
SI_UNIT($,.RADIAN.)
);
#458=(
NAMED_UNIT(*)
SI_UNIT($,.STERADIAN.)
SOLID_ANGLE_UNIT()
);
#459=SHAPE_DEFINITION_REPRESENTATION(#460,#461);
#460=PRODUCT_DEFINITION_SHAPE('',$,#463);
#461=SHAPE_REPRESENTATION('',(#253),#453);
#462=PRODUCT_DEFINITION_CONTEXT('part definition',#467,'design');
#463=PRODUCT_DEFINITION('2026-09-29-16-34-03-760','Excentrica O15',#464,
#462);
#464=PRODUCT_DEFINITION_FORMATION('',$,#469);
#465=PRODUCT_RELATED_PRODUCT_CATEGORY('Excentrica O15','Excentrica O15',
(#469));
#466=APPLICATION_PROTOCOL_DEFINITION('international standard',
'automotive_design',2009,#467);
#467=APPLICATION_CONTEXT(
'Core Data for Automotive Mechanical Design Process');
#468=PRODUCT_CONTEXT('part definition',#467,'mechanical');
#469=PRODUCT('2026-09-29-16-34-03-760','Excentrica O15',$,(#468));
#470=PRESENTATION_STYLE_ASSIGNMENT((#472));
#471=PRESENTATION_STYLE_ASSIGNMENT((#473));
#472=SURFACE_STYLE_USAGE(.BOTH.,#474);
#473=SURFACE_STYLE_USAGE(.BOTH.,#475);
#474=SURFACE_SIDE_STYLE('',(#476));
#475=SURFACE_SIDE_STYLE('',(#477));
#476=SURFACE_STYLE_FILL_AREA(#478);
#477=SURFACE_STYLE_FILL_AREA(#479);
#478=FILL_AREA_STYLE('Steel - Satin',(#480));
#479=FILL_AREA_STYLE('Aluminum - Satin',(#481));
#480=FILL_AREA_STYLE_COLOUR('Steel - Satin',#482);
#481=FILL_AREA_STYLE_COLOUR('Aluminum - Satin',#483);
#482=COLOUR_RGB('Steel - Satin',0.627450980392157,0.627450980392157,0.627450980392157);
#483=COLOUR_RGB('Aluminum - Satin',0.96078431372549,0.96078431372549,0.964705882352941);
ENDSEC;
END-ISO-10303-21;
